<svg xmlns="http://www.w3.org/2000/svg" viewBox="0 0 100 100" width="100" height="100">
  <!-- Background Circle (optional, for contrast) -->
  <circle cx="50" cy="50" r="48" fill="#2D3748" />

  <!-- Stylized Bitcoin-like Symbol (Orange) -->
  <path d="M50 25 C40 25 35 30 35 40 L35 60 C35 70 40 75 50 75 C60 75 65 70 65 60 L65 40 C65 30 60 25 50 25 Z M50 30 C57 30 60 33 60 40 L60 43 L40 43 L40 40 C40 33 43 30 50 30 Z M50 70 C43 70 40 67 40 60 L40 57 L60 57 L60 60 C60 67 57 70 50 70 Z" fill="#F7931A"/>
  <rect x="47.5" y="20" width="5" height="60" fill="#F7931A"/>
  <rect x="42.5" y="42" width="15" height="5" fill="#2D3748"/>
  <rect x="42.5" y="53" width="15" height="5" fill="#2D3748"/>

  <!-- Network/Connection Elements (Light Blue/Teal) -->
  <circle cx="25" cy="35" r="5" fill="#4FD1C5"/>
  <circle cx="75" cy="35" r="5" fill="#4FD1C5"/>
  <circle cx="25" cy="65" r="5" fill="#4FD1C5"/>
  <circle cx="75" cy="65" r="5" fill="#4FD1C5"/>
  <circle cx="50" cy="15" r="5" fill="#4FD1C5"/>
  <circle cx="50" cy="85" r="5" fill="#4FD1C5"/>

  <line x1="50" y1="50" x2="25" y2="35" stroke="#4FD1C5" stroke-width="2"/>
  <line x1="50" y1="50" x2="75" y2="35" stroke="#4FD1C5" stroke-width="2"/>
  <line x1="50" y1="50" x2="25" y2="65" stroke="#4FD1C5" stroke-width="2"/>
  <line x1="50" y1="50" x2="75" y2="65" stroke="#4FD1C5" stroke-width="2"/>
  <line x1="50" y1="50" x2="50" y2="15" stroke="#4FD1C5" stroke-width="2"/>
  <line x1="50" y1="50" x2="50" y2="85" stroke="#4FD1C5" stroke-width="2"/>

  <line x1="25" y1="35" x2="50" y2="15" stroke="#4FD1C5" stroke-width="1" stroke-dasharray="2 2"/>
  <line x1="75" y1="35" x2="50" y2="15" stroke="#4FD1C5" stroke-width="1" stroke-dasharray="2 2"/>
  <line x1="25" y1="65" x2="50" y2="85" stroke="#4FD1C5" stroke-width="1" stroke-dasharray="2 2"/>
  <line x1="75" y1="65" x2="50" y2="85" stroke="#4FD1C5" stroke-width="1" stroke-dasharray="2 2"/>
  <line x1="25" y1="35" x2="25" y2="65" stroke="#4FD1C5" stroke-width="1" stroke-dasharray="2 2"/>
  <line x1="75" y1="35" x2="75" y2="65" stroke="#4FD1C5" stroke-width="1" stroke-dasharray="2 2"/>
</svg> 